<svg version="1.1" xmlns="http://www.w3.org/2000/svg" xmlns:xlink="http://www.w3.org/1999/xlink" width="949.85791015625" height="676"><defs/><g><text fill="#eeeeee" stroke="none" font-family="Arial" font-size="24px" font-style="normal" font-weight="normal" text-decoration="none" x="0" y="0">UNREGISTERED</text><text fill="#eeeeee" stroke="none" font-family="Arial" font-size="24px" font-style="normal" font-weight="normal" text-decoration="none" x="0" y="30">UNREGISTERED</text><text fill="#eeeeee" stroke="none" font-family="Arial" font-size="24px" font-style="normal" font-weight="normal" text-decoration="none" x="0" y="60">UNREGISTERED</text><text fill="#eeeeee" stroke="none" font-family="Arial" font-size="24px" font-style="normal" font-weight="normal" text-decoration="none" x="0" y="90">UNREGISTERED</text><text fill="#eeeeee" stroke="none" font-family="Arial" font-size="24px" font-style="normal" font-weight="normal" text-decoration="none" x="0" y="120">UNREGISTERED</text><text fill="#eeeeee" stroke="none" font-family="Arial" font-size="24px" font-style="normal" font-weight="normal" text-decoration="none" x="0" y="150">UNREGISTERED</text><text fill="#eeeeee" stroke="none" font-family="Arial" font-size="24px" font-style="normal" font-weight="normal" text-decoration="none" x="0" y="180">UNREGISTERED</text><text fill="#eeeeee" stroke="none" font-family="Arial" font-size="24px" font-style="normal" font-weight="normal" text-decoration="none" x="0" y="210">UNREGISTERED</text><text fill="#eeeeee" stroke="none" font-family="Arial" font-size="24px" font-style="normal" font-weight="normal" text-decoration="none" x="0" y="240">UNREGISTERED</text><text fill="#eeeeee" stroke="none" font-family="Arial" font-size="24px" font-style="normal" font-weight="normal" text-decoration="none" x="0" y="270">UNREGISTERED</text><text fill="#eeeeee" stroke="none" font-family="Arial" font-size="24px" font-style="normal" font-weight="normal" text-decoration="none" x="0" y="300">UNREGISTERED</text><text fill="#eeeeee" stroke="none" font-family="Arial" font-size="24px" font-style="normal" font-weight="normal" text-decoration="none" x="0" y="330">UNREGISTERED</text><text fill="#eeeeee" stroke="none" font-family="Arial" font-size="24px" font-style="normal" font-weight="normal" text-decoration="none" x="0" y="360">UNREGISTERED</text><text fill="#eeeeee" stroke="none" font-family="Arial" font-size="24px" font-style="normal" font-weight="normal" text-decoration="none" x="0" y="390">UNREGISTERED</text><text fill="#eeeeee" stroke="none" font-family="Arial" font-size="24px" font-style="normal" font-weight="normal" text-decoration="none" x="0" y="420">UNREGISTERED</text><text fill="#eeeeee" stroke="none" font-family="Arial" font-size="24px" font-style="normal" font-weight="normal" text-decoration="none" x="0" y="450">UNREGISTERED</text><text fill="#eeeeee" stroke="none" font-family="Arial" font-size="24px" font-style="normal" font-weight="normal" text-decoration="none" x="0" y="480">UNREGISTERED</text><text fill="#eeeeee" stroke="none" font-family="Arial" font-size="24px" font-style="normal" font-weight="normal" text-decoration="none" x="0" y="510">UNREGISTERED</text><text fill="#eeeeee" stroke="none" font-family="Arial" font-size="24px" font-style="normal" font-weight="normal" text-decoration="none" x="0" y="540">UNREGISTERED</text><text fill="#eeeeee" stroke="none" font-family="Arial" font-size="24px" font-style="normal" font-weight="normal" text-decoration="none" x="0" y="570">UNREGISTERED</text><text fill="#eeeeee" stroke="none" font-family="Arial" font-size="24px" font-style="normal" font-weight="normal" text-decoration="none" x="0" y="600">UNREGISTERED</text><text fill="#eeeeee" stroke="none" font-family="Arial" font-size="24px" font-style="normal" font-weight="normal" text-decoration="none" x="0" y="630">UNREGISTERED</text><text fill="#eeeeee" stroke="none" font-family="Arial" font-size="24px" font-style="normal" font-weight="normal" text-decoration="none" x="0" y="660">UNREGISTERED</text><text fill="#eeeeee" stroke="none" font-family="Arial" font-size="24px" font-style="normal" font-weight="normal" text-decoration="none" x="200" y="0">UNREGISTERED</text><text fill="#eeeeee" stroke="none" font-family="Arial" font-size="24px" font-style="normal" font-weight="normal" text-decoration="none" x="200" y="30">UNREGISTERED</text><text fill="#eeeeee" stroke="none" font-family="Arial" font-size="24px" font-style="normal" font-weight="normal" text-decoration="none" x="200" y="60">UNREGISTERED</text><text fill="#eeeeee" stroke="none" font-family="Arial" font-size="24px" font-style="normal" font-weight="normal" text-decoration="none" x="200" y="90">UNREGISTERED</text><text fill="#eeeeee" stroke="none" font-family="Arial" font-size="24px" font-style="normal" font-weight="normal" text-decoration="none" x="200" y="120">UNREGISTERED</text><text fill="#eeeeee" stroke="none" font-family="Arial" font-size="24px" font-style="normal" font-weight="normal" text-decoration="none" x="200" y="150">UNREGISTERED</text><text fill="#eeeeee" stroke="none" font-family="Arial" font-size="24px" font-style="normal" font-weight="normal" text-decoration="none" x="200" y="180">UNREGISTERED</text><text fill="#eeeeee" stroke="none" font-family="Arial" font-size="24px" font-style="normal" font-weight="normal" text-decoration="none" x="200" y="210">UNREGISTERED</text><text fill="#eeeeee" stroke="none" font-family="Arial" font-size="24px" font-style="normal" font-weight="normal" text-decoration="none" x="200" y="240">UNREGISTERED</text><text fill="#eeeeee" stroke="none" font-family="Arial" font-size="24px" font-style="normal" font-weight="normal" text-decoration="none" x="200" y="270">UNREGISTERED</text><text fill="#eeeeee" stroke="none" font-family="Arial" font-size="24px" font-style="normal" font-weight="normal" text-decoration="none" x="200" y="300">UNREGISTERED</text><text fill="#eeeeee" stroke="none" font-family="Arial" font-size="24px" font-style="normal" font-weight="normal" text-decoration="none" x="200" y="330">UNREGISTERED</text><text fill="#eeeeee" stroke="none" font-family="Arial" font-size="24px" font-style="normal" font-weight="normal" text-decoration="none" x="200" y="360">UNREGISTERED</text><text fill="#eeeeee" stroke="none" font-family="Arial" font-size="24px" font-style="normal" font-weight="normal" text-decoration="none" x="200" y="390">UNREGISTERED</text><text fill="#eeeeee" stroke="none" font-family="Arial" font-size="24px" font-style="normal" font-weight="normal" text-decoration="none" x="200" y="420">UNREGISTERED</text><text fill="#eeeeee" stroke="none" font-family="Arial" font-size="24px" font-style="normal" font-weight="normal" text-decoration="none" x="200" y="450">UNREGISTERED</text><text fill="#eeeeee" stroke="none" font-family="Arial" font-size="24px" font-style="normal" font-weight="normal" text-decoration="none" x="200" y="480">UNREGISTERED</text><text fill="#eeeeee" stroke="none" font-family="Arial" font-size="24px" font-style="normal" font-weight="normal" text-decoration="none" x="200" y="510">UNREGISTERED</text><text fill="#eeeeee" stroke="none" font-family="Arial" font-size="24px" font-style="normal" font-weight="normal" text-decoration="none" x="200" y="540">UNREGISTERED</text><text fill="#eeeeee" stroke="none" font-family="Arial" font-size="24px" font-style="normal" font-weight="normal" text-decoration="none" x="200" y="570">UNREGISTERED</text><text fill="#eeeeee" stroke="none" font-family="Arial" font-size="24px" font-style="normal" font-weight="normal" text-decoration="none" x="200" y="600">UNREGISTERED</text><text fill="#eeeeee" stroke="none" font-family="Arial" font-size="24px" font-style="normal" font-weight="normal" text-decoration="none" x="200" y="630">UNREGISTERED</text><text fill="#eeeeee" stroke="none" font-family="Arial" font-size="24px" font-style="normal" font-weight="normal" text-decoration="none" x="200" y="660">UNREGISTERED</text><text fill="#eeeeee" stroke="none" font-family="Arial" font-size="24px" font-style="normal" font-weight="normal" text-decoration="none" x="400" y="0">UNREGISTERED</text><text fill="#eeeeee" stroke="none" font-family="Arial" font-size="24px" font-style="normal" font-weight="normal" text-decoration="none" x="400" y="30">UNREGISTERED</text><text fill="#eeeeee" stroke="none" font-family="Arial" font-size="24px" font-style="normal" font-weight="normal" text-decoration="none" x="400" y="60">UNREGISTERED</text><text fill="#eeeeee" stroke="none" font-family="Arial" font-size="24px" font-style="normal" font-weight="normal" text-decoration="none" x="400" y="90">UNREGISTERED</text><text fill="#eeeeee" stroke="none" font-family="Arial" font-size="24px" font-style="normal" font-weight="normal" text-decoration="none" x="400" y="120">UNREGISTERED</text><text fill="#eeeeee" stroke="none" font-family="Arial" font-size="24px" font-style="normal" font-weight="normal" text-decoration="none" x="400" y="150">UNREGISTERED</text><text fill="#eeeeee" stroke="none" font-family="Arial" font-size="24px" font-style="normal" font-weight="normal" text-decoration="none" x="400" y="180">UNREGISTERED</text><text fill="#eeeeee" stroke="none" font-family="Arial" font-size="24px" font-style="normal" font-weight="normal" text-decoration="none" x="400" y="210">UNREGISTERED</text><text fill="#eeeeee" stroke="none" font-family="Arial" font-size="24px" font-style="normal" font-weight="normal" text-decoration="none" x="400" y="240">UNREGISTERED</text><text fill="#eeeeee" stroke="none" font-family="Arial" font-size="24px" font-style="normal" font-weight="normal" text-decoration="none" x="400" y="270">UNREGISTERED</text><text fill="#eeeeee" stroke="none" font-family="Arial" font-size="24px" font-style="normal" font-weight="normal" text-decoration="none" x="400" y="300">UNREGISTERED</text><text fill="#eeeeee" stroke="none" font-family="Arial" font-size="24px" font-style="normal" font-weight="normal" text-decoration="none" x="400" y="330">UNREGISTERED</text><text fill="#eeeeee" stroke="none" font-family="Arial" font-size="24px" font-style="normal" font-weight="normal" text-decoration="none" x="400" y="360">UNREGISTERED</text><text fill="#eeeeee" stroke="none" font-family="Arial" font-size="24px" font-style="normal" font-weight="normal" text-decoration="none" x="400" y="390">UNREGISTERED</text><text fill="#eeeeee" stroke="none" font-family="Arial" font-size="24px" font-style="normal" font-weight="normal" text-decoration="none" x="400" y="420">UNREGISTERED</text><text fill="#eeeeee" stroke="none" font-family="Arial" font-size="24px" font-style="normal" font-weight="normal" text-decoration="none" x="400" y="450">UNREGISTERED</text><text fill="#eeeeee" stroke="none" font-family="Arial" font-size="24px" font-style="normal" font-weight="normal" text-decoration="none" x="400" y="480">UNREGISTERED</text><text fill="#eeeeee" stroke="none" font-family="Arial" font-size="24px" font-style="normal" font-weight="normal" text-decoration="none" x="400" y="510">UNREGISTERED</text><text fill="#eeeeee" stroke="none" font-family="Arial" font-size="24px" font-style="normal" font-weight="normal" text-decoration="none" x="400" y="540">UNREGISTERED</text><text fill="#eeeeee" stroke="none" font-family="Arial" font-size="24px" font-style="normal" font-weight="normal" text-decoration="none" x="400" y="570">UNREGISTERED</text><text fill="#eeeeee" stroke="none" font-family="Arial" font-size="24px" font-style="normal" font-weight="normal" text-decoration="none" x="400" y="600">UNREGISTERED</text><text fill="#eeeeee" stroke="none" font-family="Arial" font-size="24px" font-style="normal" font-weight="normal" text-decoration="none" x="400" y="630">UNREGISTERED</text><text fill="#eeeeee" stroke="none" font-family="Arial" font-size="24px" font-style="normal" font-weight="normal" text-decoration="none" x="400" y="660">UNREGISTERED</text><text fill="#eeeeee" stroke="none" font-family="Arial" font-size="24px" font-style="normal" font-weight="normal" text-decoration="none" x="600" y="0">UNREGISTERED</text><text fill="#eeeeee" stroke="none" font-family="Arial" font-size="24px" font-style="normal" font-weight="normal" text-decoration="none" x="600" y="30">UNREGISTERED</text><text fill="#eeeeee" stroke="none" font-family="Arial" font-size="24px" font-style="normal" font-weight="normal" text-decoration="none" x="600" y="60">UNREGISTERED</text><text fill="#eeeeee" stroke="none" font-family="Arial" font-size="24px" font-style="normal" font-weight="normal" text-decoration="none" x="600" y="90">UNREGISTERED</text><text fill="#eeeeee" stroke="none" font-family="Arial" font-size="24px" font-style="normal" font-weight="normal" text-decoration="none" x="600" y="120">UNREGISTERED</text><text fill="#eeeeee" stroke="none" font-family="Arial" font-size="24px" font-style="normal" font-weight="normal" text-decoration="none" x="600" y="150">UNREGISTERED</text><text fill="#eeeeee" stroke="none" font-family="Arial" font-size="24px" font-style="normal" font-weight="normal" text-decoration="none" x="600" y="180">UNREGISTERED</text><text fill="#eeeeee" stroke="none" font-family="Arial" font-size="24px" font-style="normal" font-weight="normal" text-decoration="none" x="600" y="210">UNREGISTERED</text><text fill="#eeeeee" stroke="none" font-family="Arial" font-size="24px" font-style="normal" font-weight="normal" text-decoration="none" x="600" y="240">UNREGISTERED</text><text fill="#eeeeee" stroke="none" font-family="Arial" font-size="24px" font-style="normal" font-weight="normal" text-decoration="none" x="600" y="270">UNREGISTERED</text><text fill="#eeeeee" stroke="none" font-family="Arial" font-size="24px" font-style="normal" font-weight="normal" text-decoration="none" x="600" y="300">UNREGISTERED</text><text fill="#eeeeee" stroke="none" font-family="Arial" font-size="24px" font-style="normal" font-weight="normal" text-decoration="none" x="600" y="330">UNREGISTERED</text><text fill="#eeeeee" stroke="none" font-family="Arial" font-size="24px" font-style="normal" font-weight="normal" text-decoration="none" x="600" y="360">UNREGISTERED</text><text fill="#eeeeee" stroke="none" font-family="Arial" font-size="24px" font-style="normal" font-weight="normal" text-decoration="none" x="600" y="390">UNREGISTERED</text><text fill="#eeeeee" stroke="none" font-family="Arial" font-size="24px" font-style="normal" font-weight="normal" text-decoration="none" x="600" y="420">UNREGISTERED</text><text fill="#eeeeee" stroke="none" font-family="Arial" font-size="24px" font-style="normal" font-weight="normal" text-decoration="none" x="600" y="450">UNREGISTERED</text><text fill="#eeeeee" stroke="none" font-family="Arial" font-size="24px" font-style="normal" font-weight="normal" text-decoration="none" x="600" y="480">UNREGISTERED</text><text fill="#eeeeee" stroke="none" font-family="Arial" font-size="24px" font-style="normal" font-weight="normal" text-decoration="none" x="600" y="510">UNREGISTERED</text><text fill="#eeeeee" stroke="none" font-family="Arial" font-size="24px" font-style="normal" font-weight="normal" text-decoration="none" x="600" y="540">UNREGISTERED</text><text fill="#eeeeee" stroke="none" font-family="Arial" font-size="24px" font-style="normal" font-weight="normal" text-decoration="none" x="600" y="570">UNREGISTERED</text><text fill="#eeeeee" stroke="none" font-family="Arial" font-size="24px" font-style="normal" font-weight="normal" text-decoration="none" x="600" y="600">UNREGISTERED</text><text fill="#eeeeee" stroke="none" font-family="Arial" font-size="24px" font-style="normal" font-weight="normal" text-decoration="none" x="600" y="630">UNREGISTERED</text><text fill="#eeeeee" stroke="none" font-family="Arial" font-size="24px" font-style="normal" font-weight="normal" text-decoration="none" x="600" y="660">UNREGISTERED</text><text fill="#eeeeee" stroke="none" font-family="Arial" font-size="24px" font-style="normal" font-weight="normal" text-decoration="none" x="800" y="0">UNREGISTERED</text><text fill="#eeeeee" stroke="none" font-family="Arial" font-size="24px" font-style="normal" font-weight="normal" text-decoration="none" x="800" y="30">UNREGISTERED</text><text fill="#eeeeee" stroke="none" font-family="Arial" font-size="24px" font-style="normal" font-weight="normal" text-decoration="none" x="800" y="60">UNREGISTERED</text><text fill="#eeeeee" stroke="none" font-family="Arial" font-size="24px" font-style="normal" font-weight="normal" text-decoration="none" x="800" y="90">UNREGISTERED</text><text fill="#eeeeee" stroke="none" font-family="Arial" font-size="24px" font-style="normal" font-weight="normal" text-decoration="none" x="800" y="120">UNREGISTERED</text><text fill="#eeeeee" stroke="none" font-family="Arial" font-size="24px" font-style="normal" font-weight="normal" text-decoration="none" x="800" y="150">UNREGISTERED</text><text fill="#eeeeee" stroke="none" font-family="Arial" font-size="24px" font-style="normal" font-weight="normal" text-decoration="none" x="800" y="180">UNREGISTERED</text><text fill="#eeeeee" stroke="none" font-family="Arial" font-size="24px" font-style="normal" font-weight="normal" text-decoration="none" x="800" y="210">UNREGISTERED</text><text fill="#eeeeee" stroke="none" font-family="Arial" font-size="24px" font-style="normal" font-weight="normal" text-decoration="none" x="800" y="240">UNREGISTERED</text><text fill="#eeeeee" stroke="none" font-family="Arial" font-size="24px" font-style="normal" font-weight="normal" text-decoration="none" x="800" y="270">UNREGISTERED</text><text fill="#eeeeee" stroke="none" font-family="Arial" font-size="24px" font-style="normal" font-weight="normal" text-decoration="none" x="800" y="300">UNREGISTERED</text><text fill="#eeeeee" stroke="none" font-family="Arial" font-size="24px" font-style="normal" font-weight="normal" text-decoration="none" x="800" y="330">UNREGISTERED</text><text fill="#eeeeee" stroke="none" font-family="Arial" font-size="24px" font-style="normal" font-weight="normal" text-decoration="none" x="800" y="360">UNREGISTERED</text><text fill="#eeeeee" stroke="none" font-family="Arial" font-size="24px" font-style="normal" font-weight="normal" text-decoration="none" x="800" y="390">UNREGISTERED</text><text fill="#eeeeee" stroke="none" font-family="Arial" font-size="24px" font-style="normal" font-weight="normal" text-decoration="none" x="800" y="420">UNREGISTERED</text><text fill="#eeeeee" stroke="none" font-family="Arial" font-size="24px" font-style="normal" font-weight="normal" text-decoration="none" x="800" y="450">UNREGISTERED</text><text fill="#eeeeee" stroke="none" font-family="Arial" font-size="24px" font-style="normal" font-weight="normal" text-decoration="none" x="800" y="480">UNREGISTERED</text><text fill="#eeeeee" stroke="none" font-family="Arial" font-size="24px" font-style="normal" font-weight="normal" text-decoration="none" x="800" y="510">UNREGISTERED</text><text fill="#eeeeee" stroke="none" font-family="Arial" font-size="24px" font-style="normal" font-weight="normal" text-decoration="none" x="800" y="540">UNREGISTERED</text><text fill="#eeeeee" stroke="none" font-family="Arial" font-size="24px" font-style="normal" font-weight="normal" text-decoration="none" x="800" y="570">UNREGISTERED</text><text fill="#eeeeee" stroke="none" font-family="Arial" font-size="24px" font-style="normal" font-weight="normal" text-decoration="none" x="800" y="600">UNREGISTERED</text><text fill="#eeeeee" stroke="none" font-family="Arial" font-size="24px" font-style="normal" font-weight="normal" text-decoration="none" x="800" y="630">UNREGISTERED</text><text fill="#eeeeee" stroke="none" font-family="Arial" font-size="24px" font-style="normal" font-weight="normal" text-decoration="none" x="800" y="660">UNREGISTERED</text><g transform="translate(-230,-46) scale(1,1)"><rect fill="#C0C0C0" stroke="none" x="911" y="71" width="265.85791015625" height="127" opacity="0.2"/></g><g transform="translate(-230,-46) scale(1,1)"><rect fill="#ffffff" stroke="none" x="904" y="64" width="265.85791015625" height="127"/></g><g transform="translate(-230,-46) scale(1,1)"><path fill="none" stroke="#000000" d="M 904 64 L 1169.85791015625 64 L 1169.85791015625 191 L 904 191 L 904 64 Z Z" stroke-miterlimit="10"/></g><g transform="translate(-230,-46) scale(1,1)"><path fill="none" stroke="#000000" d="M 904 89 L 1169.85791015625 89" stroke-miterlimit="10"/></g><g transform="translate(-230,-46) scale(1,1)"><path fill="none" stroke="#000000" d="M 904 112 L 1169.85791015625 112" stroke-miterlimit="10"/></g><g transform="translate(-230,-46) scale(1,1)"><g><path fill="none" stroke="none"/><text fill="#000000" stroke="none" font-family="Arial" font-size="13px" font-style="normal" font-weight="bold" text-decoration="none" x="1012.731689453125" y="82">Guichet</text></g></g><g transform="translate(-230,-46) scale(1,1)"><g><path fill="none" stroke="none"/><text fill="#000000" stroke="none" font-family="Arial" font-size="13px" font-style="normal" font-weight="normal" text-decoration="none" x="909" y="104">+numero</text></g></g><g transform="translate(-230,-46) scale(1,1)"><g><path fill="none" stroke="none"/><text fill="#000000" stroke="none" font-family="Arial" font-size="13px" font-style="normal" font-weight="normal" text-decoration="none" x="909" y="128">+saisirEmprunt(numeroAdherent, ressource)</text></g></g><g transform="translate(-230,-46) scale(1,1)"><g><path fill="none" stroke="none"/><text fill="#000000" stroke="none" font-family="Arial" font-size="13px" font-style="normal" font-weight="normal" text-decoration="none" x="909" y="143">+ajouter(reference, ressource)</text></g></g><g transform="translate(-230,-46) scale(1,1)"><rect fill="#C0C0C0" stroke="none" x="271" y="63" width="113.431640625" height="168" opacity="0.2"/></g><g transform="translate(-230,-46) scale(1,1)"><rect fill="#ffffff" stroke="none" x="264" y="56" width="113.431640625" height="168"/></g><g transform="translate(-230,-46) scale(1,1)"><path fill="none" stroke="#000000" d="M 264 56 L 377.431640625 56 L 377.431640625 224 L 264 224 L 264 56 Z Z" stroke-miterlimit="10"/></g><g transform="translate(-230,-46) scale(1,1)"><path fill="none" stroke="#000000" d="M 264 81 L 377.431640625 81" stroke-miterlimit="10"/></g><g transform="translate(-230,-46) scale(1,1)"><path fill="none" stroke="#000000" d="M 264 179 L 377.431640625 179" stroke-miterlimit="10"/></g><g transform="translate(-230,-46) scale(1,1)"><g><path fill="none" stroke="none"/><text fill="#000000" stroke="none" font-family="Arial" font-size="13px" font-style="normal" font-weight="bold" text-decoration="none" x="302.659912109375" y="74">Client</text></g></g><g transform="translate(-230,-46) scale(1,1)"><g><path fill="none" stroke="none"/><text fill="#000000" stroke="none" font-family="Arial" font-size="13px" font-style="normal" font-weight="normal" text-decoration="none" x="269" y="96">+nom</text></g></g><g transform="translate(-230,-46) scale(1,1)"><g><path fill="none" stroke="none"/><text fill="#000000" stroke="none" font-family="Arial" font-size="13px" font-style="normal" font-weight="normal" text-decoration="none" x="269" y="111">+prenom</text></g></g><g transform="translate(-230,-46) scale(1,1)"><g><path fill="none" stroke="none"/><text fill="#000000" stroke="none" font-family="Arial" font-size="13px" font-style="normal" font-weight="normal" text-decoration="none" x="269" y="127">+adresse</text></g></g><g transform="translate(-230,-46) scale(1,1)"><g><path fill="none" stroke="none"/><text fill="#000000" stroke="none" font-family="Arial" font-size="13px" font-style="normal" font-weight="normal" text-decoration="none" x="269" y="142">+email</text></g></g><g transform="translate(-230,-46) scale(1,1)"><g><path fill="none" stroke="none"/><text fill="#000000" stroke="none" font-family="Arial" font-size="13px" font-style="normal" font-weight="normal" text-decoration="none" x="269" y="157">+telephone</text></g></g><g transform="translate(-230,-46) scale(1,1)"><g><path fill="none" stroke="none"/><text fill="#000000" stroke="none" font-family="Arial" font-size="13px" font-style="normal" font-weight="normal" text-decoration="none" x="269" y="172">+numeroAdherent</text></g></g><g transform="translate(-230,-46) scale(1,1)"><rect fill="#C0C0C0" stroke="none" x="575" y="303" width="127" height="143" opacity="0.2"/></g><g transform="translate(-230,-46) scale(1,1)"><rect fill="#ffffff" stroke="none" x="568" y="296" width="127" height="143"/></g><g transform="translate(-230,-46) scale(1,1)"><path fill="none" stroke="#000000" d="M 568 296 L 695 296 L 695 439 L 568 439 L 568 296 Z Z" stroke-miterlimit="10"/></g><g transform="translate(-230,-46) scale(1,1)"><path fill="none" stroke="#000000" d="M 568 321 L 695 321" stroke-miterlimit="10"/></g><g transform="translate(-230,-46) scale(1,1)"><path fill="none" stroke="#000000" d="M 568 359 L 695 359" stroke-miterlimit="10"/></g><g transform="translate(-230,-46) scale(1,1)"><g><path fill="none" stroke="none"/><text fill="#000000" stroke="none" font-family="Arial" font-size="13px" font-style="normal" font-weight="bold" text-decoration="none" x="594.6455078125" y="314">Ressources</text></g></g><g transform="translate(-230,-46) scale(1,1)"><g><path fill="none" stroke="none"/><text fill="#000000" stroke="none" font-family="Arial" font-size="13px" font-style="normal" font-weight="normal" text-decoration="none" x="573" y="336">+ressource</text></g></g><g transform="translate(-230,-46) scale(1,1)"><g><path fill="none" stroke="none"/><text fill="#000000" stroke="none" font-family="Arial" font-size="13px" font-style="normal" font-weight="normal" text-decoration="none" x="573" y="352">+emplacement</text></g></g><g transform="translate(-230,-46) scale(1,1)"><rect fill="#C0C0C0" stroke="none" x="247" y="447" width="101.16162109375" height="136" opacity="0.2"/></g><g transform="translate(-230,-46) scale(1,1)"><rect fill="#ffffff" stroke="none" x="240" y="440" width="101.16162109375" height="136"/></g><g transform="translate(-230,-46) scale(1,1)"><path fill="none" stroke="#000000" d="M 240 440 L 341.16162109375 440 L 341.16162109375 576 L 240 576 L 240 440 Z Z" stroke-miterlimit="10"/></g><g transform="translate(-230,-46) scale(1,1)"><path fill="none" stroke="#000000" d="M 240 465 L 341.16162109375 465" stroke-miterlimit="10"/></g><g transform="translate(-230,-46) scale(1,1)"><path fill="none" stroke="#000000" d="M 240 533 L 341.16162109375 533" stroke-miterlimit="10"/></g><g transform="translate(-230,-46) scale(1,1)"><g><path fill="none" stroke="none"/><text fill="#000000" stroke="none" font-family="Arial" font-size="13px" font-style="normal" font-weight="bold" text-decoration="none" x="275.044921875" y="458">Livre</text></g></g><g transform="translate(-230,-46) scale(1,1)"><g><path fill="none" stroke="none"/><text fill="#000000" stroke="none" font-family="Arial" font-size="13px" font-style="normal" font-weight="normal" text-decoration="none" x="245" y="481">+titre</text></g></g><g transform="translate(-230,-46) scale(1,1)"><g><path fill="none" stroke="none"/><text fill="#000000" stroke="none" font-family="Arial" font-size="13px" font-style="normal" font-weight="normal" text-decoration="none" x="245" y="495.5">+auteur</text></g></g><g transform="translate(-230,-46) scale(1,1)"><g><path fill="none" stroke="none"/><text fill="#000000" stroke="none" font-family="Arial" font-size="13px" font-style="normal" font-weight="normal" text-decoration="none" x="245" y="511">+anneeParution</text></g></g><g transform="translate(-230,-46) scale(1,1)"><g><path fill="none" stroke="none"/><text fill="#000000" stroke="none" font-family="Arial" font-size="13px" font-style="normal" font-weight="normal" text-decoration="none" x="245" y="526">+editeur</text></g></g><g transform="translate(-230,-46) scale(1,1)"><rect fill="#C0C0C0" stroke="none" x="407" y="575" width="90.3134765625" height="111" opacity="0.2"/></g><g transform="translate(-230,-46) scale(1,1)"><rect fill="#ffffff" stroke="none" x="400" y="568" width="90.3134765625" height="111"/></g><g transform="translate(-230,-46) scale(1,1)"><path fill="none" stroke="#000000" d="M 400 568 L 490.3134765625 568 L 490.3134765625 679 L 400 679 L 400 568 Z Z" stroke-miterlimit="10"/></g><g transform="translate(-230,-46) scale(1,1)"><path fill="none" stroke="#000000" d="M 400 593 L 490.3134765625 593" stroke-miterlimit="10"/></g><g transform="translate(-230,-46) scale(1,1)"><path fill="none" stroke="#000000" d="M 400 631 L 490.3134765625 631" stroke-miterlimit="10"/></g><g transform="translate(-230,-46) scale(1,1)"><g><path fill="none" stroke="none"/><text fill="#000000" stroke="none" font-family="Arial" font-size="13px" font-style="normal" font-weight="bold" text-decoration="none" x="411.568115234375" y="586">Periodique</text></g></g><g transform="translate(-230,-46) scale(1,1)"><g><path fill="none" stroke="none"/><text fill="#000000" stroke="none" font-family="Arial" font-size="13px" font-style="normal" font-weight="normal" text-decoration="none" x="405" y="609">+titre</text></g></g><g transform="translate(-230,-46) scale(1,1)"><g><path fill="none" stroke="none"/><text fill="#000000" stroke="none" font-family="Arial" font-size="13px" font-style="normal" font-weight="normal" text-decoration="none" x="405" y="624">+dateParution</text></g></g><g transform="translate(-230,-46) scale(1,1)"><rect fill="#C0C0C0" stroke="none" x="631" y="583" width="101.16162109375" height="136" opacity="0.2"/></g><g transform="translate(-230,-46) scale(1,1)"><rect fill="#ffffff" stroke="none" x="624" y="576" width="101.16162109375" height="136"/></g><g transform="translate(-230,-46) scale(1,1)"><path fill="none" stroke="#000000" d="M 624 576 L 725.16162109375 576 L 725.16162109375 712 L 624 712 L 624 576 Z Z" stroke-miterlimit="10"/></g><g transform="translate(-230,-46) scale(1,1)"><path fill="none" stroke="#000000" d="M 624 601 L 725.16162109375 601" stroke-miterlimit="10"/></g><g transform="translate(-230,-46) scale(1,1)"><path fill="none" stroke="#000000" d="M 624 669 L 725.16162109375 669" stroke-miterlimit="10"/></g><g transform="translate(-230,-46) scale(1,1)"><g><path fill="none" stroke="none"/><text fill="#000000" stroke="none" font-family="Arial" font-size="13px" font-style="normal" font-weight="bold" text-decoration="none" x="665.192626953125" y="594">CD</text></g></g><g transform="translate(-230,-46) scale(1,1)"><g><path fill="none" stroke="none"/><text fill="#000000" stroke="none" font-family="Arial" font-size="13px" font-style="normal" font-weight="normal" text-decoration="none" x="629" y="617">+titre</text></g></g><g transform="translate(-230,-46) scale(1,1)"><g><path fill="none" stroke="none"/><text fill="#000000" stroke="none" font-family="Arial" font-size="13px" font-style="normal" font-weight="normal" text-decoration="none" x="629" y="631.5">+auteur</text></g></g><g transform="translate(-230,-46) scale(1,1)"><g><path fill="none" stroke="none"/><text fill="#000000" stroke="none" font-family="Arial" font-size="13px" font-style="normal" font-weight="normal" text-decoration="none" x="629" y="647">+anneeParution</text></g></g><g transform="translate(-230,-46) scale(1,1)"><g><path fill="none" stroke="none"/><text fill="#000000" stroke="none" font-family="Arial" font-size="13px" font-style="normal" font-weight="normal" text-decoration="none" x="629" y="662">+maisonProd</text></g></g><g transform="translate(-230,-46) scale(1,1)"><rect fill="#C0C0C0" stroke="none" x="823" y="583" width="101.16162109375" height="136" opacity="0.2"/></g><g transform="translate(-230,-46) scale(1,1)"><rect fill="#ffffff" stroke="none" x="816" y="576" width="101.16162109375" height="136"/></g><g transform="translate(-230,-46) scale(1,1)"><path fill="none" stroke="#000000" d="M 816 576 L 917.16162109375 576 L 917.16162109375 712 L 816 712 L 816 576 Z Z" stroke-miterlimit="10"/></g><g transform="translate(-230,-46) scale(1,1)"><path fill="none" stroke="#000000" d="M 816 601 L 917.16162109375 601" stroke-miterlimit="10"/></g><g transform="translate(-230,-46) scale(1,1)"><path fill="none" stroke="#000000" d="M 816 669 L 917.16162109375 669" stroke-miterlimit="10"/></g><g transform="translate(-230,-46) scale(1,1)"><g><path fill="none" stroke="none"/><text fill="#000000" stroke="none" font-family="Arial" font-size="13px" font-style="normal" font-weight="bold" text-decoration="none" x="852.857177734375" y="594">DVD</text></g></g><g transform="translate(-230,-46) scale(1,1)"><g><path fill="none" stroke="none"/><text fill="#000000" stroke="none" font-family="Arial" font-size="13px" font-style="normal" font-weight="normal" text-decoration="none" x="821" y="617">+titre</text></g></g><g transform="translate(-230,-46) scale(1,1)"><g><path fill="none" stroke="none"/><text fill="#000000" stroke="none" font-family="Arial" font-size="13px" font-style="normal" font-weight="normal" text-decoration="none" x="821" y="632">+realisateur</text></g></g><g transform="translate(-230,-46) scale(1,1)"><g><path fill="none" stroke="none"/><text fill="#000000" stroke="none" font-family="Arial" font-size="13px" font-style="normal" font-weight="normal" text-decoration="none" x="821" y="647">+anneeParution</text></g></g><g transform="translate(-230,-46) scale(1,1)"><g><path fill="none" stroke="none"/><text fill="#000000" stroke="none" font-family="Arial" font-size="13px" font-style="normal" font-weight="normal" text-decoration="none" x="821" y="662">+maisonProd</text></g></g><g transform="translate(-230,-46) scale(1,1)"><rect fill="#C0C0C0" stroke="none" x="967" y="543" width="87.04443359375" height="103" opacity="0.2"/></g><g transform="translate(-230,-46) scale(1,1)"><rect fill="#ffffff" stroke="none" x="960" y="536" width="87.04443359375" height="103"/></g><g transform="translate(-230,-46) scale(1,1)"><path fill="none" stroke="#000000" d="M 960 536 L 1047.04443359375 536 L 1047.04443359375 639 L 960 639 L 960 536 Z Z" stroke-miterlimit="10"/></g><g transform="translate(-230,-46) scale(1,1)"><path fill="none" stroke="#000000" d="M 960 561 L 1047.04443359375 561" stroke-miterlimit="10"/></g><g transform="translate(-230,-46) scale(1,1)"><path fill="none" stroke="#000000" d="M 960 599 L 1047.04443359375 599" stroke-miterlimit="10"/></g><g transform="translate(-230,-46) scale(1,1)"><g><path fill="none" stroke="none"/><text fill="#000000" stroke="none" font-family="Arial" font-size="13px" font-style="normal" font-weight="bold" text-decoration="none" x="965.58544921875" y="554">JeuxSociete</text></g></g><g transform="translate(-230,-46) scale(1,1)"><g><path fill="none" stroke="none"/><text fill="#000000" stroke="none" font-family="Arial" font-size="13px" font-style="normal" font-weight="normal" text-decoration="none" x="965" y="576">+nom</text></g></g><g transform="translate(-230,-46) scale(1,1)"><g><path fill="none" stroke="none"/><text fill="#000000" stroke="none" font-family="Arial" font-size="13px" font-style="normal" font-weight="normal" text-decoration="none" x="965" y="592">+editeur</text></g></g><g transform="translate(-230,-46) scale(1,1)"><rect fill="#C0C0C0" stroke="none" x="559" y="87" width="151" height="119" opacity="0.2"/></g><g transform="translate(-230,-46) scale(1,1)"><rect fill="#ffffff" stroke="none" x="552" y="80" width="151" height="119"/></g><g transform="translate(-230,-46) scale(1,1)"><path fill="none" stroke="#000000" d="M 552 80 L 703 80 L 703 199 L 552 199 L 552 80 Z Z" stroke-miterlimit="10"/></g><g transform="translate(-230,-46) scale(1,1)"><path fill="none" stroke="#000000" d="M 552 105 L 703 105" stroke-miterlimit="10"/></g><g transform="translate(-230,-46) scale(1,1)"><path fill="none" stroke="#000000" d="M 552 173 L 703 173" stroke-miterlimit="10"/></g><g transform="translate(-230,-46) scale(1,1)"><g><path fill="none" stroke="none"/><text fill="#000000" stroke="none" font-family="Arial" font-size="13px" font-style="normal" font-weight="bold" text-decoration="none" x="600.779541015625" y="98">Emprunt</text></g></g><g transform="translate(-230,-46) scale(1,1)"><g><path fill="none" stroke="none"/><text fill="#000000" stroke="none" font-family="Arial" font-size="13px" font-style="normal" font-weight="normal" text-decoration="none" x="557" y="121">+reference</text></g></g><g transform="translate(-230,-46) scale(1,1)"><g><path fill="none" stroke="none"/><text fill="#000000" stroke="none" font-family="Arial" font-size="13px" font-style="normal" font-weight="normal" text-decoration="none" x="557" y="136">+dateSaisi</text></g></g><g transform="translate(-230,-46) scale(1,1)"><g><path fill="none" stroke="none"/><text fill="#000000" stroke="none" font-family="Arial" font-size="13px" font-style="normal" font-weight="normal" text-decoration="none" x="557" y="151">+duree</text></g></g><g transform="translate(-230,-46) scale(1,1)"><g><path fill="none" stroke="none"/><text fill="#000000" stroke="none" font-family="Arial" font-size="13px" font-style="normal" font-weight="normal" text-decoration="none" x="557" y="166">+joursRetard</text></g></g><g transform="translate(-230,-46) scale(1,1)"><path fill="none" stroke="#000000" d="M 903 131 L 704 137" stroke-miterlimit="10"/></g><g transform="translate(-230,-46) scale(1,1)"><g><path fill="none" stroke="none"/><text fill="#000000" stroke="none" font-family="Arial" font-size="13px" font-style="normal" font-weight="normal" text-decoration="none" x="838.14453125" y="151">+est saisi par</text></g></g><g transform="translate(-230,-46) scale(1,1)"><g><path fill="none" stroke="none"/><text fill="#000000" stroke="none" font-family="Arial" font-size="13px" font-style="normal" font-weight="normal" text-decoration="none" x="876.641357421875" y="124">1</text></g></g><g transform="translate(-230,-46) scale(1,1)"><g><path fill="none" stroke="none"/><text fill="#000000" stroke="none" font-family="Arial" font-size="13px" font-style="normal" font-weight="normal" text-decoration="none" x="682.674072265625" y="156">+saisit l'emprunt</text></g></g><g transform="translate(-230,-46) scale(1,1)"><g><path fill="none" stroke="none"/><text fill="#000000" stroke="none" font-family="Arial" font-size="13px" font-style="normal" font-weight="normal" text-decoration="none" x="715.5" y="128">1..*</text></g></g><g transform="translate(-230,-46) scale(1,1)"><path fill="none" stroke="#000000" d="M 378 140 L 551 139" stroke-miterlimit="10"/></g><g transform="translate(-230,-46) scale(1,1)"><g><path fill="none" stroke="none"/><text fill="#000000" stroke="none" font-family="Arial" font-size="13px" font-style="normal" font-weight="normal" text-decoration="none" x="350.5" y="128.5">+est emprunte par</text></g></g><g transform="translate(-230,-46) scale(1,1)"><g><path fill="none" stroke="none"/><text fill="#000000" stroke="none" font-family="Arial" font-size="13px" font-style="normal" font-weight="normal" text-decoration="none" x="395.641357421875" y="157">1</text></g></g><g transform="translate(-230,-46) scale(1,1)"><g><path fill="none" stroke="none"/><text fill="#000000" stroke="none" font-family="Arial" font-size="13px" font-style="normal" font-weight="normal" text-decoration="none" x="476.5" y="129">+fait un emprunt</text></g></g><g transform="translate(-230,-46) scale(1,1)"><g><path fill="none" stroke="none"/><text fill="#000000" stroke="none" font-family="Arial" font-size="13px" font-style="normal" font-weight="normal" text-decoration="none" x="519.5" y="156">1..*</text></g></g><g transform="translate(-230,-46) scale(1,1)"><path fill="none" stroke="#000000" d="M 342 486 L 567 393" stroke-miterlimit="10"/></g><g transform="translate(-230,-46) scale(1,1)"><path fill="#FFFFFF" stroke="none" d="M 551.4319637372452 408.54465332265573 L 567 393 L 545.0000062132042 392.9834657644919"/></g><g transform="translate(-230,-46) scale(1,1)"><path fill="none" stroke="#000000" d="M 551.4319637372452 408.54465332265573 L 567 393 L 545.0000062132042 392.9834657644919 L 551.4319637372452 408.54465332265573" stroke-miterlimit="10"/></g><g transform="translate(-230,-46) scale(1,1)"><path fill="none" stroke="#000000" d="M 486 567 L 578 440" stroke-miterlimit="10"/></g><g transform="translate(-230,-46) scale(1,1)"><path fill="#FFFFFF" stroke="none" d="M 572.8941032652806 461.3992948139508 L 578 440 L 559.2579993192869 451.52117227039633"/></g><g transform="translate(-230,-46) scale(1,1)"><path fill="none" stroke="#000000" d="M 572.8941032652806 461.3992948139508 L 578 440 L 559.2579993192869 451.52117227039633 L 572.8941032652806 461.3992948139508" stroke-miterlimit="10"/></g><g transform="translate(-230,-46) scale(1,1)"><path fill="none" stroke="#000000" d="M 663 575 L 642 440" stroke-miterlimit="10"/></g><g transform="translate(-230,-46) scale(1,1)"><path fill="#FFFFFF" stroke="none" d="M 653.4431362985176 458.7897480465691 L 642 440 L 636.8051610142081 461.37787753523946"/></g><g transform="translate(-230,-46) scale(1,1)"><path fill="none" stroke="#000000" d="M 653.4431362985176 458.7897480465691 L 642 440 L 636.8051610142081 461.37787753523946 L 653.4431362985176 458.7897480465691" stroke-miterlimit="10"/></g><g transform="translate(-230,-46) scale(1,1)"><path fill="none" stroke="#000000" d="M 815 584 L 693 440" stroke-miterlimit="10"/></g><g transform="translate(-230,-46) scale(1,1)"><path fill="#FFFFFF" stroke="none" d="M 712.5622456519528 450.0657113535334 L 693 440 L 699.7150638001831 460.9501293112828"/></g><g transform="translate(-230,-46) scale(1,1)"><path fill="none" stroke="#000000" d="M 712.5622456519528 450.0657113535334 L 693 440 L 699.7150638001831 460.9501293112828 L 712.5622456519528 450.0657113535334" stroke-miterlimit="10"/></g><g transform="translate(-230,-46) scale(1,1)"><path fill="none" stroke="#000000" d="M 959 561 L 696 405" stroke-miterlimit="10"/></g><g transform="translate(-230,-46) scale(1,1)"><path fill="#FFFFFF" stroke="none" d="M 717.7764687889525 408.12816353213515 L 696 405 L 709.1863431047323 422.6102343971987"/></g><g transform="translate(-230,-46) scale(1,1)"><path fill="none" stroke="#000000" d="M 717.7764687889525 408.12816353213515 L 696 405 L 709.1863431047323 422.6102343971987 L 717.7764687889525 408.12816353213515" stroke-miterlimit="10"/></g><g transform="translate(-230,-46) scale(1,1)"><rect fill="#C0C0C0" stroke="none" x="975" y="303" width="159" height="143" opacity="0.2"/></g><g transform="translate(-230,-46) scale(1,1)"><rect fill="#ffffff" stroke="none" x="968" y="296" width="159" height="143"/></g><g transform="translate(-230,-46) scale(1,1)"><path fill="none" stroke="#000000" d="M 968 296 L 1127 296 L 1127 439 L 968 439 L 968 296 Z Z" stroke-miterlimit="10"/></g><g transform="translate(-230,-46) scale(1,1)"><path fill="none" stroke="#000000" d="M 968 321 L 1127 321" stroke-miterlimit="10"/></g><g transform="translate(-230,-46) scale(1,1)"><path fill="none" stroke="#000000" d="M 968 331 L 1127 331" stroke-miterlimit="10"/></g><g transform="translate(-230,-46) scale(1,1)"><g><path fill="none" stroke="none"/><text fill="#000000" stroke="none" font-family="Arial" font-size="13px" font-style="normal" font-weight="bold" text-decoration="none" x="1016.793212890625" y="314">Inventaire</text></g></g><g transform="translate(-230,-46) scale(1,1)"><path fill="none" stroke="#000000" d="M 630 295 L 628 200" stroke-miterlimit="10"/></g><g transform="translate(-230,-46) scale(1,1)"><g><path fill="none" stroke="none"/><text fill="#000000" stroke="none" font-family="Arial" font-size="13px" font-style="normal" font-weight="normal" text-decoration="none" x="632.5" y="278">1..*</text></g></g><g transform="translate(-230,-46) scale(1,1)"><g><path fill="none" stroke="none"/><text fill="#000000" stroke="none" font-family="Arial" font-size="13px" font-style="normal" font-weight="normal" text-decoration="none" x="630.58544921875" y="226">0..*</text></g></g><g transform="translate(-230,-46) scale(1,1)"><path fill="none" stroke="#000000" d="M 1039 192 L 1044 295" stroke-miterlimit="10" stroke-dasharray="3"/></g><g transform="translate(-230,-46) scale(1,1)"><path fill="none" stroke="#000000" d="M 1039.302679849761 285.05338331862737 L 1044 295 L 1047.7118131736238 284.6451729631001" stroke-miterlimit="10"/></g></g></svg>